<svg xmlns="http://www.w3.org/2000/svg" viewBox="0 0 609.27 135.49"><defs><style>.cls-1{fill:#095191;}.cls-2{fill:#606060;}</style></defs><g id="Layer_2" data-name="Layer 2"><g id="Layer_1-2" data-name="Layer 1"><path class="cls-1" d="M157.49,23.15H137.06a60.5,60.5,0,0,1,3.32,7.64h15.38v82.43H18.12V30.79h16a54.65,54.65,0,0,1,3.33-7.64H16.38c-4.18,0-5.79,1.62-5.79,5.77q0,44.51,0,89c0,.93.08,1.87.12,2.9H14c16.55,0,33.1,0,49.65,0a22.22,22.22,0,0,1,4.93,1c2,.46,3.88,1.34,5.83,1.38,8.06.15,16.14,0,24.21.09,3,0,5.78-.18,8.44-1.82a8,8,0,0,1,4-.7c15.89-.05,31.79,0,47.68,0h4.45c0-1.09.12-1.88.12-2.68V28.9C163.3,24.74,161.7,23.15,157.49,23.15Z"/><path class="cls-1" d="M173.87,124.81a10.66,10.66,0,0,1-10.11,10.57c-.49,0-1,0-1.47,0H11.62C4.89,135.39.31,131.34,0,124.86c.76,0,1.53-.15,2.31-.15q30.57,0,61.14,0a19.56,19.56,0,0,1,4.41,1c2,.48,3.9,1.36,5.86,1.4,9.13.14,18.27.1,27.4,0a9.76,9.76,0,0,0,4.7-1c2.41-1.43,4.89-1.53,7.51-1.52q29.12,0,58.22,0C172.27,124.71,173,124.77,173.87,124.81Z"/><path class="cls-1" d="M202.17,32V72.26q0,4.93-5.28,4.94A7,7,0,0,1,190.14,73L175.6,81.52Q181.66,94,197,94q10.72,0,16.62-5.67t5.88-15.62V32Z"/><path class="cls-1" d="M267.25,38A22.13,22.13,0,0,0,251.5,32H227.27V92.6h17.31V75.47h6.92a22.13,22.13,0,0,0,15.75-5.93q6.31-5.93,6.32-15.8T267.25,38ZM254.87,57.34a4.66,4.66,0,0,1-3.37,1.34h-6.92V48.81h6.92a4.66,4.66,0,0,1,3.37,1.34,5.34,5.34,0,0,1,0,7.19Z"/><path class="cls-1" d="M299.27,32V92.6h4.58V32Z"/><path class="cls-1" d="M350.11,53.09q-4.55-4.71-12.25-4.71-10.82,0-15.49,9.17V49.33h-4.32V92.6h4.32V69.75q0-8.39,4.24-12.8a14.44,14.44,0,0,1,10.91-4.42q6,0,9.39,3.55t3.33,9.61V92.6h4.41V65.69Q354.65,57.82,350.11,53.09Z"/><path class="cls-1" d="M387.28,35.22V31.07q-8.4-.6-12.85,3.59T370,47v2.34h-7.44v4.24H370v39h4.41v-39h12.9V49.33h-12.9V47Q374.38,34.2,387.28,35.22Z"/><path class="cls-1" d="M427,54.91a23.1,23.1,0,0,0-32.19,0A21.71,21.71,0,0,0,388.14,71a21.7,21.7,0,0,0,6.62,16A23.1,23.1,0,0,0,427,87a21.67,21.67,0,0,0,6.63-16A21.68,21.68,0,0,0,427,54.91ZM423.88,84a18.42,18.42,0,0,1-26,0,18.7,18.7,0,0,1,0-26.13,18.42,18.42,0,0,1,26,0A17.93,17.93,0,0,1,429.16,71,17.91,17.91,0,0,1,423.88,84Z"/><path class="cls-1" d="M465.25,53.57V49.33h-12.9V37.21l-4.41,1.3V49.33h-9.52v4.24h9.52V81.7q0,7.18,4.28,9.69t13,1.21V88.71a42.6,42.6,0,0,1-7.27.21,5.82,5.82,0,0,1-4.24-1.86c-.92-1.09-1.39-2.88-1.39-5.36V53.57Z"/><path class="cls-1" d="M508,55.13a19.61,19.61,0,0,0-15.45-6.75q-9.87,0-16.14,6.45A22.16,22.16,0,0,0,470.09,71q0,9.86,6.41,16.22t16.35,6.36a23.42,23.42,0,0,0,11.25-2.64,19.18,19.18,0,0,0,7.62-7.14l-3.81-2.25A14.86,14.86,0,0,1,502,87.24a18.46,18.46,0,0,1-9.09,2.16,18.23,18.23,0,0,1-12.5-4.46,17.48,17.48,0,0,1-5.85-11.72H513.8c0-.23,0-.58,0-1s0-.81,0-1A23.47,23.47,0,0,0,508,55.13ZM474.59,69a17.94,17.94,0,0,1,5.63-11.86,17.34,17.34,0,0,1,12.29-4.59,16.37,16.37,0,0,1,11.38,4.37q4.8,4.38,5.49,12.08Z"/><path class="cls-1" d="M559.4,80.4A16.2,16.2,0,0,1,553.13,87a18,18,0,0,1-9.31,2.42,17.69,17.69,0,0,1-13.06-5.32A17.9,17.9,0,0,1,525.48,71a17.9,17.9,0,0,1,5.28-13.12,17.69,17.69,0,0,1,13.06-5.32A17.94,17.94,0,0,1,553.13,55a14.5,14.5,0,0,1,6,6.57l3.55-2.07a17.84,17.84,0,0,0-7.44-8.1,23.53,23.53,0,0,0-27.69,3.51A21.85,21.85,0,0,0,521.07,71a22.18,22.18,0,0,0,22.75,22.58,22.43,22.43,0,0,0,11.47-3,19.51,19.51,0,0,0,7.75-8Z"/><path class="cls-1" d="M604.62,53.09q-4.54-4.71-12.25-4.71-10.82,0-15.49,9.17V32h-4.32V92.6h4.32V69.75q0-8.39,4.24-12.8A14.44,14.44,0,0,1,592,52.53c4,0,7.16,1.19,9.39,3.55s3.33,5.57,3.33,9.61V92.6h4.41V65.69Q609.16,57.82,604.62,53.09Z"/><path class="cls-2" d="M209.05,118.94a6.13,6.13,0,0,0-2.84-2.19,5.38,5.38,0,0,0,2.14-2,5.51,5.51,0,0,0,.8-2.95,6,6,0,0,0-6-6H194V128.6h9.86a6.25,6.25,0,0,0,6.23-6.23A5.71,5.71,0,0,0,209.05,118.94Zm-13.28-11.55h7.38a4.08,4.08,0,0,1,3,1.29,4.42,4.42,0,0,1,0,6.16,4.08,4.08,0,0,1-3,1.29h-7.38Zm11.31,18.22A4.26,4.26,0,0,1,203.9,127h-8.13v-9.2h8.13a4.29,4.29,0,0,1,3.18,1.35,4.65,4.65,0,0,1,0,6.49Z"/><path class="cls-2" d="M227.07,112.28v8.62a6.69,6.69,0,0,1-1.6,4.83,5.46,5.46,0,0,1-4.11,1.66,4.61,4.61,0,0,1-3.54-1.33,5.09,5.09,0,0,1-1.26-3.63V112.28H214.9v10.15a6.56,6.56,0,0,0,1.71,4.75,6.75,6.75,0,0,0,10.46-1.68v3.1h1.63V112.28Z"/><path class="cls-2" d="M236.4,106.13a1.28,1.28,0,0,0-1.82,0,1.21,1.21,0,0,0-.4.9,1.25,1.25,0,0,0,.4.93,1.3,1.3,0,0,0,1.82,0,1.21,1.21,0,0,0,.4-.93A1.18,1.18,0,0,0,236.4,106.13Zm-1.73,6.15V128.6h1.64V112.28Z"/><path class="cls-2" d="M242.28,104.78V128.6h1.63V104.78Z"/><path class="cls-2" d="M264.28,105.75v10.32a7.61,7.61,0,0,0-2.86-3,7.89,7.89,0,0,0-4.16-1.11,8.13,8.13,0,0,0-6,2.47,8.52,8.52,0,0,0,6,14.57,7.89,7.89,0,0,0,4.16-1.11,7.65,7.65,0,0,0,2.86-3v3.78h1.63V105.75Zm-2,19.62a7,7,0,0,1-9.82,0,7.05,7.05,0,0,1,0-9.86,7,7,0,0,1,9.82,0,7.05,7.05,0,0,1,0,9.86Z"/><path class="cls-2" d="M273.61,106.13a1.27,1.27,0,0,0-.91-.38,1.31,1.31,0,0,0-.92.38,1.2,1.2,0,0,0-.39.9,1.24,1.24,0,0,0,.39.93,1.3,1.3,0,0,0,.92.37,1.26,1.26,0,0,0,.91-.37A1.24,1.24,0,0,0,274,107,1.2,1.2,0,0,0,273.61,106.13Zm-1.73,6.15V128.6h1.63V112.28Z"/><path class="cls-2" d="M291.58,113.7a6.13,6.13,0,0,0-4.62-1.78,6.06,6.06,0,0,0-5.84,3.46v-3.1h-1.63V128.6h1.63V120a6.7,6.7,0,0,1,1.6-4.84,5.44,5.44,0,0,1,4.11-1.66,4.64,4.64,0,0,1,3.54,1.34,5.07,5.07,0,0,1,1.26,3.62V128.6h1.66V118.45A6.57,6.57,0,0,0,291.58,113.7Z"/><path class="cls-2" d="M313.33,112.28v3.79a7.52,7.52,0,0,0-2.85-3,7.92,7.92,0,0,0-4.16-1.11,8.43,8.43,0,0,0-8.46,8.52,8.42,8.42,0,0,0,8.46,8.52,7.92,7.92,0,0,0,4.16-1.11,7.56,7.56,0,0,0,2.85-3v3a5.83,5.83,0,0,1-1.73,4.45,6.61,6.61,0,0,1-4.76,1.65q-4.69,0-6.27-3.16l-1.43.81a6.4,6.4,0,0,0,2.9,2.87,10.19,10.19,0,0,0,4.8,1.05,8.44,8.44,0,0,0,5.81-2.06,7.13,7.13,0,0,0,2.32-5.61V112.28Zm-2,13.09a7,7,0,0,1-9.83,0,7.05,7.05,0,0,1,0-9.86,7,7,0,0,1,9.83,0,7.08,7.08,0,0,1,0,9.86Z"/><path class="cls-2" d="M344.83,105.75l-7.21,11.78-7.25-11.78h-2l8.33,13.45v9.4h1.73v-9.4l8.32-13.45Z"/><path class="cls-2" d="M360.84,114.39a8.69,8.69,0,0,0-12.14,0,8.58,8.58,0,0,0,0,12.11,8.72,8.72,0,0,0,12.14,0,8.58,8.58,0,0,0,0-12.11Zm-1.16,11a7,7,0,0,1-9.81,0,7,7,0,0,1,4.91-11.88,6.6,6.6,0,0,1,4.9,2,7.1,7.1,0,0,1,0,9.86Z"/><path class="cls-2" d="M380,112.28v8.62a6.69,6.69,0,0,1-1.6,4.83,5.46,5.46,0,0,1-4.11,1.66,4.6,4.6,0,0,1-3.54-1.33,5.09,5.09,0,0,1-1.26-3.63V112.28h-1.66v10.15a6.56,6.56,0,0,0,1.71,4.75A6.75,6.75,0,0,0,380,125.5v3.1h1.63V112.28Z"/><path class="cls-2" d="M389.19,115.48v-3.2h-1.64V128.6h1.64v-9.07a5.82,5.82,0,0,1,1.56-4.42,5.41,5.41,0,0,1,3.89-1.49v-1.57A5.42,5.42,0,0,0,389.19,115.48Z"/><path class="cls-2" d="M425.17,109.07a10,10,0,0,0-7.72-3.32h-8.58V128.6h8.58a10,10,0,0,0,7.72-3.31,12.31,12.31,0,0,0,0-16.22ZM424,124.15a8.4,8.4,0,0,1-6.53,2.82H410.6V107.39h6.85a8.4,8.4,0,0,1,6.53,2.82,10.83,10.83,0,0,1,0,13.94Z"/><path class="cls-2" d="M435,106.13a1.31,1.31,0,0,0-.92-.38,1.27,1.27,0,0,0-.91.38,1.2,1.2,0,0,0-.39.9,1.24,1.24,0,0,0,.39.93,1.26,1.26,0,0,0,.91.37A1.3,1.3,0,0,0,435,108a1.24,1.24,0,0,0,.39-.93A1.2,1.2,0,0,0,435,106.13Zm-1.73,6.15V128.6h1.63V112.28Z"/><path class="cls-2" d="M455.31,112.28v3.79a7.59,7.59,0,0,0-2.85-3,7.93,7.93,0,0,0-4.17-1.11,8.14,8.14,0,0,0-6,2.47,8.52,8.52,0,0,0,6,14.57,7.93,7.93,0,0,0,4.17-1.11,7.63,7.63,0,0,0,2.85-3v3a5.83,5.83,0,0,1-1.73,4.45,6.61,6.61,0,0,1-4.76,1.65q-4.71,0-6.27-3.16l-1.44.81a6.47,6.47,0,0,0,2.91,2.87,10.19,10.19,0,0,0,4.8,1.05,8.46,8.46,0,0,0,5.81-2.06,7.13,7.13,0,0,0,2.31-5.61V112.28Zm-2,13.09a7,7,0,0,1-9.82,0,7.05,7.05,0,0,1,0-9.86,7,7,0,0,1,9.82,0,7.05,7.05,0,0,1,0,9.86Z"/><path class="cls-2" d="M464.65,106.13a1.29,1.29,0,0,0-.92-.38,1.27,1.27,0,0,0-.91.38,1.2,1.2,0,0,0-.39.9,1.24,1.24,0,0,0,.39.93,1.26,1.26,0,0,0,.91.37,1.28,1.28,0,0,0,.92-.37A1.24,1.24,0,0,0,465,107,1.2,1.2,0,0,0,464.65,106.13Zm-1.73,6.15V128.6h1.63V112.28Z"/><path class="cls-2" d="M478.88,113.88v-1.6H474v-4.57l-1.66.49v4.08h-3.59v1.6h3.59v10.61c0,1.81.54,3,1.61,3.65s2.72.79,4.92.46v-1.47a15.66,15.66,0,0,1-2.74.08,2.15,2.15,0,0,1-1.6-.7,3.11,3.11,0,0,1-.53-2V113.88Z"/><path class="cls-2" d="M497.12,112.28V116a7.66,7.66,0,0,0-2.87-3,8,8,0,0,0-4.15-1.08,8.45,8.45,0,0,0-8.45,8.52A8.43,8.43,0,0,0,490.1,129a8,8,0,0,0,4.15-1.08,7.59,7.59,0,0,0,2.87-3v3.69h1.67V112.28Zm-2,13.09a7,7,0,0,1-9.81,0,7,7,0,0,1,4.91-11.88,6.6,6.6,0,0,1,4.9,2,7.1,7.1,0,0,1,0,9.86Z"/><path class="cls-2" d="M504.76,104.78V128.6h1.63V104.78Z"/><path class="cls-2" d="M549,105.75l-5.91,20.6-6.4-20.6h-2l-6.37,20.52-6-20.52h-1.77l6.64,22.85h2l6.47-20.71,6.43,20.71h2.09l6.56-22.85Z"/><path class="cls-2" d="M567,114.39a8.52,8.52,0,1,0,0,12.11,8.58,8.58,0,0,0,0-12.11Zm-1.16,11a7,7,0,0,1-9.8,0,7.05,7.05,0,0,1,0-9.86,7,7,0,0,1,9.8,0,7.1,7.1,0,0,1,0,9.86Z"/><path class="cls-2" d="M575.94,115.48v-3.2h-1.63V128.6h1.63v-9.07a5.82,5.82,0,0,1,1.57-4.42,5.38,5.38,0,0,1,3.88-1.49v-1.57A5.43,5.43,0,0,0,575.94,115.48Z"/><path class="cls-2" d="M585.64,104.78V128.6h1.63V104.78Z"/><path class="cls-2" d="M607.64,105.75v10.32a7.61,7.61,0,0,0-2.86-3,7.92,7.92,0,0,0-4.16-1.11,8.13,8.13,0,0,0-6,2.47,8.52,8.52,0,0,0,6,14.57,7.92,7.92,0,0,0,4.16-1.11,7.65,7.65,0,0,0,2.86-3v3.78h1.63V105.75Zm-2,19.62a7,7,0,0,1-9.83,0,7.08,7.08,0,0,1,0-9.86,7,7,0,0,1,9.83,0,7.05,7.05,0,0,1,0,9.86Z"/><path class="cls-1" d="M85.14,30.79v1.48a15,15,0,0,1,2.46-1.48Z"/><path class="cls-1" d="M132.88,30.79A51.55,51.55,0,0,0,129,23.15c-5.76-9.4-14.32-16.28-25.94-20.35C98.68,1.26,93.88.9,89.26,0H85.14C81,.76,76.85,1.18,72.87,2.33A48.27,48.27,0,0,0,45.56,23.15a48.83,48.83,0,0,0-7.22,20.68A11.83,11.83,0,0,1,38,45.36v8.25c.17,1,.37,2.08.52,3.12a49.12,49.12,0,0,0,48.69,42c.93,0,1.88,0,2.82-.08a47.26,47.26,0,0,0,15.85-3.55c-.74-.47-1.28-.63-1.5-1a3.15,3.15,0,0,0-2.74-1.78,5.3,5.3,0,0,0-2,.48,31.35,31.35,0,0,1-5.71,1.26,30,30,0,0,1,3.65-3.83c3.52-3.43,3.13-1.71,1.34-6.37,0-.11-.19-.18-.34-.31l-9,8.08V76.24h6c-.73-1.54-1-3.13-1.91-3.74s-2.68-.54-4.38-.81c1-6.22-.48-11.85-4.1-17.22V72.05h-10c-9.35,0-9.49,0-12.65-9.2-1.21-3.52-1.79-7.25-2.74-11.28H84c-1.2-4.26-1.2-4.26-5.18-4.26H60.52a6.35,6.35,0,0,1-.14-.88,38.93,38.93,0,0,1,5.09-15.64c.56-1,1.16-2,1.79-3A1.76,1.76,0,0,1,68.51,27c3.25,0,6.51,0,9.82,0h6.81v3.82H87.6c1.29-.73,2.27-1.59,1.74-3.83C92.22,27,95,27,97.8,27c1.91,0,3.8,0,5.69-.14h.59c2.36,0,3.89.88,4.61,3.19a4.69,4.69,0,0,0,.28.72c1.17,2.6,3.67,2.84,6.45,3.26-.54-1.13-1.06-2.19-1.57-3.26L112,27h6.14c7,0,8.82,0,10.45,3.83.55,1.29,1.08,3,1.79,5.31.82,2.66,1.72,3.47,4.44,3.47l.9,0A63.57,63.57,0,0,0,132.88,30.79ZM70.55,76.59H85V90.93l-.55.53q-7.11-7.15-14.21-14.3Zm-1.91,4.49c3.41,4.68,7.91,8.57,12,12.82-9.45-.39-23.2-8.48-29.34-17.56,1.56,0,3,.09,4.43.09a18.76,18.76,0,0,0,2.5-.14,13.58,13.58,0,0,1,1.87-.13C63.63,76.16,66.21,77.74,68.64,81.08ZM62,72l-6.38,0c-2.25,0-4.46,0-6.65-.09-.58,0-1.29-.91-1.64-1.56a43,43,0,0,1-5-18.59H56A45.07,45.07,0,0,0,62,72Zm-1.33-41.2a47.35,47.35,0,0,0-4.21,12.94c-.6,3.57-.67,3.58-4.39,3.58H42.24a42.17,42.17,0,0,1,4-16.52c.5-1.07,1.06-2.12,1.66-3.16A2,2,0,0,1,49.46,27c2.28,0,4.56,0,6.9,0h6.33C62,28.25,61.28,29.52,60.67,30.79Zm6.62-10.38a5.2,5.2,0,0,1-4.38,2.27h-.38c-1.49-.08-3-.1-4.52-.1-2.22,0-4.52.05-7,.05A45.52,45.52,0,0,1,81,4.77C76.38,10,71.7,15.09,67.29,20.41ZM85,22.49H71.32L70.89,22,84.42,7.74l.59.37Zm18.22,0H89.49V8.1L90,7.64l13.66,14.27C103.51,22.1,103.37,22.3,103.23,22.49Zm14.28.12c-2.67,0-5.21,0-7.75,0a1.76,1.76,0,0,1-1.15-.6c-5-5.72-9.93-11.47-14.85-17.16,11.89,1.83,21.71,7.66,29.84,17.79Z"/><path class="cls-1" d="M144.7,55.44V53.61c-1.23-1.06-2.29-2.7-3.7-3.09Q117.47,44,93.84,37.9a5.2,5.2,0,0,0-1.23-.14,3.7,3.7,0,0,0-2.63.82c-.66.77-.51,2.76,0,3.91,5.12,11.62,10.4,23.17,15.6,34.76,1.5,3.34,2.74,6.78,4.34,10.06a4.42,4.42,0,0,0,3.87,2.84,4.88,4.88,0,0,0,3.68-2,15.2,15.2,0,0,0,2-3.56c1.11-2.47,2.1-5,3.21-7.67,3.3,2.78,6.37,5.39,9.46,8a4.91,4.91,0,0,0,3,1.38,4.37,4.37,0,0,0,3.13-1.74c1.64-1.8,3.19-3.69,4.7-5.61,1.89-2.39,1.7-4.05-.65-6.09-3-2.65-6.1-5.28-9.32-8.06a75.58,75.58,0,0,0,6.9-4.35A48,48,0,0,0,144.7,55.44Zm-15.38,6.83c-2.4,1.43-2.62,2.68-.5,4.59,3.56,3.2,7.25,6.26,11,9.48L135,82l-10.75-9.15a4.71,4.71,0,0,0-2.62-1.44c-.88,0-1.52.82-2.26,2.55-1.29,3-2.42,6.07-3.67,9.09-.39,1-1,1.85-1.77,3.42-6.62-14.92-13-29.24-19.59-44.12l46,12.22c0,.24.09.49.14.73-2,1.33-4,2.68-6,4C132.75,60.28,131,61.26,129.32,62.27Z"/></g></g></svg>